<?xml version="1.0" encoding="utf-8"?>
<!-- Generator: Adobe Illustrator 16.0.0, SVG Export Plug-In . SVG Version: 6.00 Build 0)  -->
<!DOCTYPE svg PUBLIC "-//W3C//DTD SVG 1.1//EN" "http://www.w3.org/Graphics/SVG/1.1/DTD/svg11.dtd">
<svg version="1.1" id="Capa_1" xmlns="http://www.w3.org/2000/svg" xmlns:xlink="http://www.w3.org/1999/xlink" x="0px" y="0px"
	 width="1800px" height="1200px" viewBox="340 274 1800 1200" enable-background="new 340 274 1800 1200" xml:space="preserve">
<rect x="366" y="291.332" fill="#F0F0F0" width="1748" height="1165.346"/>
<polygon fill="#D80027" points="1349.25,291.322 1130.75,291.322 1130.75,764.737 366,764.737 366,983.237 1130.75,983.237 
	1130.75,1456.651 1349.25,1456.651 1349.25,983.237 2114,983.237 2114,764.737 1349.25,764.737 "/>
<g>
	<polygon fill="#0052B4" points="1710.406,1076.652 2114,1300.873 2114,1076.652 	"/>
	<polygon fill="#0052B4" points="1430,1076.652 2114,1456.651 2114,1349.197 1623.423,1076.652 	"/>
	<polygon fill="#0052B4" points="1931.805,1456.651 1430,1177.844 1430,1456.651 	"/>
</g>
<polygon fill="#F0F0F0" points="1430,1076.652 2114,1456.651 2114,1349.197 1623.423,1076.652 "/>
<polygon fill="#D80027" points="1430,1076.652 2114,1456.651 2114,1349.197 1623.423,1076.652 "/>
<g>
	<polygon fill="#0052B4" points="674.43,1076.645 366,1247.996 366,1076.645 	"/>
	<polygon fill="#0052B4" points="1050.001,1124.967 1050.001,1456.647 453.027,1456.647 	"/>
</g>
<polygon fill="#D80027" points="856.577,1076.652 366,1349.197 366,1456.651 366,1456.651 1050.001,1076.652 "/>
<g>
	<polygon fill="#0052B4" points="769.594,671.321 366,447.099 366,671.321 	"/>
	<polygon fill="#0052B4" points="1050.001,671.321 366,291.322 366,398.776 856.577,671.321 	"/>
	<polygon fill="#0052B4" points="548.195,291.322 1050.001,570.128 1050.001,291.322 	"/>
</g>
<polygon fill="#F0F0F0" points="1050.001,671.321 366,291.322 366,398.776 856.577,671.321 "/>
<polygon fill="#D80027" points="1050.001,671.321 366,291.322 366,398.776 856.577,671.321 "/>
<g>
	<polygon fill="#0052B4" points="1805.57,671.327 2114,499.976 2114,671.327 	"/>
	<polygon fill="#0052B4" points="1430,623.005 1430,291.325 2026.973,291.325 	"/>
</g>
<polygon fill="#D80027" points="1623.423,671.321 2114,398.776 2114,291.322 2114,291.322 1430,671.321 "/>
</svg>
