<?xml version="1.0" encoding="utf-8"?>
<!-- Generator: Adobe Illustrator 16.0.0, SVG Export Plug-In . SVG Version: 6.00 Build 0)  -->
<!DOCTYPE svg PUBLIC "-//W3C//DTD SVG 1.1//EN" "http://www.w3.org/Graphics/SVG/1.1/DTD/svg11.dtd">
<svg version="1.1" id="Livello_1" xmlns="http://www.w3.org/2000/svg" xmlns:xlink="http://www.w3.org/1999/xlink" x="0px" y="0px"
	 width="550px" height="550px" viewBox="0 0 550 550" enable-background="new 0 0 550 550" xml:space="preserve">
<path d="M65.518,144.988l0.623-0.263l19.979-8.123c9.901-4.168,20.04-8.098,30.277-11.606c5.336-1.809,10.689-3.502,16.063-5.054
	c4.229-1.241,8.471-2.365,12.7-3.393c2.432-0.587,4.858-1.161,7.272-1.675c11.777-2.506,23.646-4.633,35.607-6.601
	c5.183-0.85,10.39-1.675,15.622-2.5c10.194-1.589,20.462-3.141,30.803-4.797c2.836-0.459,5.672-0.911,8.52-1.376
	c-11.551-1.051-22.992-1.54-34.299-1.516c-4.877,0.013-9.718,0.129-14.546,0.343c-26.709,1.161-52.77,5.354-78.304,12.614
	c-5.159,1.455-10.274,3.02-15.384,4.73c-4.003,1.339-8,2.781-11.979,4.272l-6.546,2.774l-0.941,0.403l-3.869,1.65l-1.46,0.611
	l-13.855,5.91c-4.346,6.484-8.423,13.171-12.193,20.064l15.457-6.295L65.518,144.988z"/>
<path d="M521.457,294.781c-0.098,1.455-0.221,2.922-0.342,4.389c-0.098,1.025-0.197,2.076-0.295,3.104
	c-4.963,49.432-24.396,95.441-56.74,133.885l-1.785,2.127l-2.322-1.564c-22.564-15.256-47.037-27.723-72.73-37.049l-2.959-1.064
	l1.125-2.945c13.35-34.936,20.635-71.801,21.637-109.572l0.072-3.014h114.828h0.098l-0.121,3.209
	C521.824,289.121,521.652,291.957,521.457,294.781 M382.402,150.733l-1.248-3.014l3.08-1.075
	c25.035-8.813,48.871-20.529,70.848-34.825l1.811-1.174l0.414-0.274l1.785,1.974c38.406,42.898,60.727,98.149,62.83,155.6
	l0.121,3.203h-0.098H407.117l-0.072-3.014C405.943,227.227,397.656,187.721,382.402,150.733 M376.314,136.78l-1.197-2.506
	c-17.334-36.249-41.145-68.929-70.775-97.165l-5.648-5.385l-1.223-1.18l9.412,1.241c52.637,6.888,100.773,30.082,139.229,67.106
	l2.836,2.727l-0.465,0.312l-2.885,1.803c-20.977,13.281-43.418,24.099-66.668,32.13L376.314,136.78z M276.588,16.604
	c-76.275,0-144.641,33.272-191.94,85.84l19.729-4.67c38.247-36.347,85.913-59.18,137.974-65.988l9.399-1.241l-1.223,1.18
	l-5.646,5.385c-16.233,15.456-30.693,32.264-43.32,50.238c4.742,0.141,9.51,0.33,14.289,0.593
	c13.824-18.806,29.739-36.114,47.659-51.761l5.135-4.479v60.543l11.93,1.076V31.7l5.135,4.479
	c30.736,26.801,55.623,58.466,74.082,94.244c0.512,0.983,1.002,1.986,1.516,2.988c0.611,1.229,1.246,2.451,1.857,3.691l1.613,3.344
	l-3.568,1.002c-10.537,2.939-21.246,5.305-32.027,7.157c-0.439,0.189-0.904,0.379-1.369,0.562
	c-9.389,3.808-20.047,8.11-20.658,13.557c-0.023,0.287-0.098,0.593-0.121,0.88c20.365-1.968,40.484-5.758,60.018-11.404l2.664-0.776
	l1.076,2.555c15.061,36.047,23.25,74.398,24.375,113.979l0.072,3.19h-42.293l5.379,11.929h36.914l-0.072,3.186
	c-0.637,22.467-3.594,44.627-8.803,66.201c3.082,19.582-3.715,39.58-18.115,53.357l0.123,0.035l-1.467,3.24
	c-16.477,36.414-39.336,68.928-68.111,96.908c4.646,1.111,9.363,1.992,14.131,2.641c27.553-28.164,49.629-60.52,65.617-96.396
	l1.174-2.615l2.689,0.967c24.055,8.629,47.182,20.229,68.744,34.543l3.105,2.066l-2.615,2.676
	c-22.443,22.98-49.164,41.291-78.305,54.029c2.713-0.832-26.135,9.729-26.135,9.729l-9.094,2.617l-11.148,3.178
	c-0.635,0-1.246-0.074-1.857-0.098c-1.467-0.074-2.934-0.16-4.4-0.258c-5.453-0.428-16.186-2.113-16.186-2.113l-14.008-3.215
	c0,0-4.969-1.432-7.438-2.238c-0.832-0.281-1.662-0.586-2.494-0.879c-4.033-1.418-8.018-2.996-11.93-4.707
	c-16.6-7.346-31.964-17.443-45.374-29.91c-18.983-17.676-34.019-40.068-42.917-65.922c-2.066-6.002-3.753-11.992-5.122-18.006
	c-2.579-11.367-3.941-22.734-4.064-34.092c-0.079-8.152,0.465-16.293,1.639-24.385l3.056-19.35l0.489-3.117l-8.691,19.459
	c-1.876,8.436-3.19,16.746-3.991,24.938c-0.666,6.588-1.002,13.104-0.978,19.557c0.024,7.064,0.489,14.045,1.313,20.928
	c0.129,0.939,0.214,1.881,0.343,2.811c0.55,3.996,1.259,7.969,2.09,11.906c5.929,28.602,18.94,55.604,38.694,81.201l-0.489-0.232
	l-0.171-0.074c-1.161-1.051-2.311-2.102-3.447-3.178c-22.736-21.404-38.779-45.582-47.629-72.656
	c-1.229-3.789-2.329-7.629-3.282-11.516c-3.093-12.613-4.694-25.816-4.779-39.615c-0.013-3.166,0.049-6.369,0.184-9.572
	c0.03-0.488,0.042-0.977,0.066-1.467c0,0-0.128-0.818-0.152-2.555c-0.062-2.945,0.116-8.568,1.467-17.346
	c1.112-7.309,3.025-16.77,6.308-28.797c0.477-1.785,1.015-3.545,1.576-5.281c1.877-5.855,4.156-11.393,6.681-16.582
	c2.054-4.191,4.272-8.183,6.576-11.929c16.752-27.161,38.535-42.294,38.535-42.294s-0.783,1.266-1.956,3.466
	c-3.398,6.398-9.975,20.719-9.632,35.301c0.024,1.162,0.122,2.354,0.244,3.527c0.415,4.07,1.467,8.097,3.313,11.929
	c0.489,1.016,1.002,2.012,1.613,2.977c10.879,17.566,25.07,23.262,49.579,31.672c6.368,2.164,12.822,5.574,18.91,9.412
	c3.863,2.42,7.555,5.012,11.002,7.604c0.316,0.195,0.609,0.379,0.928,0.563c7.627,4.521,14.137,10.291,19.662,17.16
	c0.146,0.135,0.221,0.232,0.221,0.232l-0.025,0.025c5.402,6.783,9.949,14.607,13.74,23.395c0.977,2.299,2.199,4.512,3.568,6.688
	c3.08,4.889,6.967,9.461,11.002,13.715c1.076,1.1,2.127,2.213,3.203,3.275c5.721,5.795,13.225,6.027,20.461,1.662
	c0.344-0.207,0.709-0.416,1.053-0.66c3.74-2.492,7.041-5.475,9.9-8.752c7.529-8.678,11.809-19.703,12.076-31.145
	c0.123-5.648-0.709-11.404-2.664-17.027c-2.787-8.057-6.43-15.83-9.828-23.652c-2.738-6.283-5.5-12.566-8.238-18.85l-8.238-18.293
	l-5.354-11.929l-21.734-48.289c-0.588-1.18-1.174-2.354-1.811-3.502c-7.578-13.611-15.988-26.801-22.857-40.76
	c-0.586-1.21-0.881-2.665-0.979-4.229c-0.146-3.044,0.441-6.546,1.027-9.791c0.318-1.852,0.637-3.624,0.832-5.177
	c0.293-2.616,1.148-4.932,2.42-6.998c6.039-9.767,21.563-14.032,33.689-19.503c0.855-0.385,1.711-0.788,2.518-1.191
	c-20.047-7.083-38.236-4.73-53.645,0.318c-4.18,1.375-8.164,2.939-11.93,4.565c-7.946,3.453-14.888,7.199-20.658,9.949
	c-0.563,0.263-1.101,0.526-1.638,0.776c-0.844-1.026,10.78-12.376,9.925-13.403c3.789-4.217,8.091-8.251,12.371-12.217
	c4.107-3.79,8.189-7.548,11.93-11.355c0.391-0.386,0.783-0.771,1.174-1.162c0.66-0.715,1.344-1.411,1.98-2.114
	c-1.051,0.037-2.104,0.098-3.154,0.146c-0.121,0-0.219,0.019-0.318,0.03c-3.887,0.184-7.748,0.446-11.611,0.74
	c-24.79,1.797-49.065,5.391-72.803,10.774c-5.306,1.198-10.586,2.513-15.836,3.894c-3.044,0.801-6.111,1.602-9.155,2.451
	c-5.391,1.54-10.763,3.166-16.093,4.907c-5.635,1.803-11.215,3.729-16.776,5.77c-25.67,9.352-50.654,20.939-74.948,34.801
	l-13.294,8.03l-2.353,1.431l-0.214,0.122l-0.184,0.116l-6.771,4.089l-6.876,4.168c-9.626,27.063-15.145,56.088-15.145,86.47
	c0,142.709,115.695,258.393,258.393,258.393C419.316,533.396,535,417.713,535,275.003C535,132.299,419.316,16.604,276.588,16.604"/>
<path d="M302.801,381.238c-6.355-0.514-12.791-0.918-19.221-1.076l-3.008-0.098V351.34c-2.127-1.639-4.352-3.131-6.723-4.475
	l-1.223-0.807c-1.344-1.014-2.664-1.955-3.984-2.91v36.916l-3.008,0.098c-26.989,0.709-53.539,4.645-79.012,11.637
	c0.904,3.838,1.932,7.701,3.104,11.539c24.472-6.734,49.896-10.561,75.738-11.295l3.178-0.109v103.375
	c3.912,1.881,7.896,3.605,11.93,5.133V391.934l3.178,0.109c8.734,0.244,17.414,0.881,26.018,1.822
	c-2.42-3.484-4.619-7.188-6.307-11.111C303.24,382.24,303.021,381.752,302.801,381.238"/>
</svg>
