<?xml version="1.0" encoding="utf-8"?>
<!-- Generator: Adobe Illustrator 16.0.0, SVG Export Plug-In . SVG Version: 6.00 Build 0)  -->
<!DOCTYPE svg PUBLIC "-//W3C//DTD SVG 1.1//EN" "http://www.w3.org/Graphics/SVG/1.1/DTD/svg11.dtd">
<svg version="1.1" id="Livello_2" xmlns="http://www.w3.org/2000/svg" xmlns:xlink="http://www.w3.org/1999/xlink" x="0px" y="0px"
	 width="1800px" height="1200px" viewBox="0 0 1800 1200" enable-background="new 0 0 1800 1200" xml:space="preserve">
<rect x="26.467" y="17.322" fill="#F0F0F0" width="1748.028" height="1165.329"/>
<rect x="26.467" y="17.322" fill="#FF9811" width="1748.028" height="388.441"/>
<rect x="26.467" y="794.204" fill="#6DA544" width="1748.028" height="388.447"/>
<circle fill="#0052B4" cx="900.481" cy="599.987" r="149.868"/>
<path fill="#F0F0F0" d="M900.481,506.326c51.735,0,93.661,41.931,93.661,93.661c0,51.735-41.926,93.661-93.661,93.661
	c-51.729,0-93.66-41.926-93.66-93.661C806.821,548.257,848.751,506.326,900.481,506.326z"/>
<polygon fill="#0052B4" points="900.481,484.407 929.375,549.941 1000.582,542.197 958.27,599.987 1000.582,657.776 
	929.375,650.037 900.481,715.566 871.585,650.037 800.384,657.776 842.691,599.987 800.384,542.197 871.585,549.941 "/>
</svg>
