<?xml version="1.0" encoding="utf-8"?>
<!-- Generator: Adobe Illustrator 16.0.0, SVG Export Plug-In . SVG Version: 6.00 Build 0)  -->
<!DOCTYPE svg PUBLIC "-//W3C//DTD SVG 1.1//EN" "http://www.w3.org/Graphics/SVG/1.1/DTD/svg11.dtd">
<svg version="1.1" id="Capa_1" xmlns="http://www.w3.org/2000/svg" xmlns:xlink="http://www.w3.org/1999/xlink" x="0px" y="0px"
	 width="1800px" height="1200px" viewBox="340 274 1800 1200" enable-background="new 340 274 1800 1200" xml:space="preserve">
<rect x="366" y="291.325" fill="#F0F0F0" width="1748" height="1165.346"/>
<g>
	<rect x="366" y="436.979" fill="#D80027" width="1748" height="145.654"/>
	<rect x="366" y="728.325" fill="#D80027" width="1748" height="145.653"/>
	<rect x="366" y="1019.633" fill="#D80027" width="1748" height="145.654"/>
	<rect x="366" y="1310.979" fill="#D80027" width="1748" height="145.654"/>
</g>
<rect x="366" y="291.325" fill="#2E52B2" width="874" height="627.494"/>
<g>
	<polygon fill="#F0F0F0" points="706.799,548.38 692.723,591.684 647.192,591.684 684.033,618.433 669.957,661.734 706.799,634.985 
		743.616,661.734 729.543,618.433 766.384,591.684 720.851,591.684 	"/>
	<polygon fill="#F0F0F0" points="720.851,747.952 706.799,704.652 692.723,747.952 647.192,747.952 684.033,774.705 
		669.957,818.006 706.799,791.253 743.616,818.006 729.543,774.705 766.384,747.952 	"/>
	<polygon fill="#F0F0F0" points="528.431,747.952 514.375,704.652 500.299,747.952 454.77,747.952 491.61,774.705 477.534,818.006 
		514.375,791.253 551.195,818.006 537.123,774.705 573.957,747.952 	"/>
	<polygon fill="#F0F0F0" points="514.375,548.38 500.299,591.684 454.77,591.684 491.61,618.433 477.534,661.734 514.375,634.985 
		551.195,661.734 537.123,618.433 573.957,591.684 528.431,591.684 	"/>
	<polygon fill="#F0F0F0" points="706.799,392.105 692.723,435.412 647.192,435.412 684.033,462.164 669.957,505.465 
		706.799,478.713 743.616,505.465 729.543,462.164 766.384,435.412 720.851,435.412 	"/>
	<polygon fill="#F0F0F0" points="514.375,392.105 500.299,435.412 454.77,435.412 491.61,462.164 477.534,505.465 514.375,478.713 
		551.195,505.465 537.123,462.164 573.957,435.412 528.431,435.412 	"/>
	<polygon fill="#F0F0F0" points="899.219,548.38 885.146,591.684 839.616,591.684 876.453,618.433 862.384,661.734 899.219,634.985 
		936.043,661.734 921.967,618.433 958.808,591.684 913.277,591.684 	"/>
	<polygon fill="#F0F0F0" points="913.277,747.952 899.219,704.652 885.146,747.952 839.616,747.952 876.453,774.705 
		862.384,818.006 899.219,791.253 936.043,818.006 921.967,774.705 958.808,747.952 	"/>
	<polygon fill="#F0F0F0" points="1105.701,747.952 1091.646,704.652 1077.569,747.952 1032.043,747.952 1068.877,774.705 
		1054.805,818.006 1091.646,791.253 1128.466,818.006 1114.39,774.705 1151.23,747.952 	"/>
	<polygon fill="#F0F0F0" points="1091.646,548.38 1077.569,591.684 1032.043,591.684 1068.877,618.433 1054.805,661.734 
		1091.646,634.985 1128.466,661.734 1114.39,618.433 1151.23,591.684 1105.701,591.684 	"/>
	<polygon fill="#F0F0F0" points="899.219,392.105 885.146,435.412 839.616,435.412 876.453,462.164 862.384,505.465 
		899.219,478.713 936.043,505.465 921.967,462.164 958.808,435.412 913.277,435.412 	"/>
	<polygon fill="#F0F0F0" points="1091.646,392.105 1077.569,435.412 1032.043,435.412 1068.877,462.164 1054.805,505.465 
		1091.646,478.713 1128.466,505.465 1114.39,462.164 1151.23,435.412 1105.701,435.412 	"/>
</g>
</svg>
