<?xml version="1.0" encoding="utf-8"?>
<!-- Generator: Adobe Illustrator 16.0.0, SVG Export Plug-In . SVG Version: 6.00 Build 0)  -->
<!DOCTYPE svg PUBLIC "-//W3C//DTD SVG 1.1//EN" "http://www.w3.org/Graphics/SVG/1.1/DTD/svg11.dtd">
<svg version="1.1" id="Livello_3" xmlns="http://www.w3.org/2000/svg" xmlns:xlink="http://www.w3.org/1999/xlink" x="0px" y="0px"
	 width="1800px" height="1200px" viewBox="0 0 1800 1200" enable-background="new 0 0 1800 1200" xml:space="preserve">
<rect x="26.467" y="17.322" fill="#F0F0F0" width="1748.028" height="1165.329"/>
<rect x="26.467" y="599.987" fill="#496E2D" width="1748.028" height="582.665"/>
<path fill="#D80027" d="M1314.727,406.668c-22.602-64.112-83.691-110.071-155.524-110.071h-141.345
	c-91.077,0-164.908,73.831-164.908,164.901c0,29.754,7.921,58.348,21.708,82.451c-52.486-0.433-101.058,0.358-131.637,0
	c0-63.6,0-144.617,0-161.568l6.493-6.492c29.157-29.151,19.432-77.74,19.432-77.74s-48.582-9.712-77.728,19.438l-33.982,33.976
	h-37.891c-83.48,0-151.154,67.674-151.154,151.16h109.929v123.665c0,18.096,3.647,35.326,10.237,51.03l-37.714,31.433h-54.967
	v-54.967h-54.968v109.923h247.342v109.935h-54.967v54.968h109.934V818.774l50.387-60.464h119.096l50.381,60.464v54.968h-54.968
	v54.968h219.857V626.4c0-45.538,36.918-82.451,82.463-82.451c1.16,0,2.321,0.04,3.482,0.085c-2.275-8.809-3.482-18.049-3.482-27.569
	C1210.232,457.578,1256.528,409.507,1314.727,406.668z M1017.847,873.742V758.311h4.586l50.381,60.476v54.967h-54.967V873.742z"/>
</svg>
