<?xml version="1.0" encoding="utf-8"?>
<!-- Generator: Adobe Illustrator 16.0.0, SVG Export Plug-In . SVG Version: 6.00 Build 0)  -->
<!DOCTYPE svg PUBLIC "-//W3C//DTD SVG 1.1//EN" "http://www.w3.org/Graphics/SVG/1.1/DTD/svg11.dtd">
<svg version="1.1" id="Capa_1" xmlns="http://www.w3.org/2000/svg" xmlns:xlink="http://www.w3.org/1999/xlink" x="0px" y="0px"
	 width="1800px" height="1200px" viewBox="340 274 1800 1200" enable-background="new 340 274 1800 1200" xml:space="preserve">
<rect x="366" y="291.346" fill="#F0F0F0" width="1748" height="1165.308"/>
<polygon points="755.285,874.003 366,484.544 366,1263.531 "/>
<polygon fill="#FFDA44" points="916.319,874 366,323.312 366,484.544 755.285,874.003 366,1263.531 366,1424.463 "/>
<path fill="#6DA544" d="M2106.602,987.998L2106.602,987.998c0.198-1.502,2.745-2.997,7.398-4.499V874V760.001h-7.398h-980.624
	L657.322,291.346H366v31.966L916.319,874L366,1424.463v32.19h291.322l468.655-468.655H2106.602z"/>
<polygon fill="#0052B4" points="2083.892,1102.001 1173.197,1102.001 818.541,1456.654 2114,1456.654 2114,1102.001 "/>
<polygon fill="#D80027" points="2083.892,645.998 2114,645.998 2114,291.346 818.541,291.346 1173.197,645.998 "/>
</svg>
