<?xml version="1.0" encoding="utf-8"?>
<!-- Generator: Adobe Illustrator 16.0.0, SVG Export Plug-In . SVG Version: 6.00 Build 0)  -->
<!DOCTYPE svg PUBLIC "-//W3C//DTD SVG 1.1//EN" "http://www.w3.org/Graphics/SVG/1.1/DTD/svg11.dtd">
<svg version="1.1" xmlns="http://www.w3.org/2000/svg" xmlns:xlink="http://www.w3.org/1999/xlink" x="0px" y="0px" width="512px"
	 height="512px" viewBox="0 0 512 512" enable-background="new 0 0 512 512" xml:space="preserve">
<g id="Livello_2">
	<path fill="#FFFFFF" d="M382.934,289.832c0,69.863-56.636,126.5-126.5,126.5s-126.5-56.637-126.5-126.5
		c0-69.864,56.636-126.499,126.5-126.499C326.264,163.413,382.852,220.001,382.934,289.832z"/>
</g>
<g id="Livello_1">
	<path fill="#AFAFAF" d="M503.467,68.267H259.533L193.767,2.5c-1.6-1.601-3.771-2.5-6.033-2.5H8.533C3.821,0,0,3.821,0,8.533
		v494.933C0,508.179,3.821,512,8.533,512h494.934c4.713,0,8.533-3.821,8.533-8.534V76.8C512,72.087,508.18,68.267,503.467,68.267z
		 M184.2,17.067l51.2,51.2H17.066v-51.2H184.2z M494.934,494.933H17.066v-409.6h477.867V494.933z"/>
	<path fill="#22252B" d="M222.837,213.342c-2.775,1.483-4.504,4.379-4.504,7.524V357.4c0,3.146,1.733,6.042,4.508,7.525
		c2.775,1.483,6.142,1.32,8.762-0.425l102.4-68.267c2.371-1.584,3.796-4.246,3.796-7.101c0-2.854-1.425-5.517-3.796-7.1
		l-102.4-68.267C228.983,212.017,225.617,211.854,222.837,213.342z"/>
</g>
</svg>
