<?xml version="1.0" encoding="utf-8"?>
<!-- Generator: Adobe Illustrator 16.0.0, SVG Export Plug-In . SVG Version: 6.00 Build 0)  -->
<!DOCTYPE svg PUBLIC "-//W3C//DTD SVG 1.1//EN" "http://www.w3.org/Graphics/SVG/1.1/DTD/svg11.dtd">
<svg version="1.1" id="Capa_1" xmlns="http://www.w3.org/2000/svg" xmlns:xlink="http://www.w3.org/1999/xlink" x="0px" y="0px"
	 width="1750px" height="1748px" viewBox="250 0 1750 1748" enable-background="new 250 0 1750 1748" xml:space="preserve">
<g>
	<g>
		<g>
			<polygon fill="#4E4E4E" points="652.363,1100.468 652.363,1747.406 788.834,1747.406 788.83,961.359 			"/>
			<polygon fill="#4E4E4E" points="918.479,1747.406 1054.946,1747.406 1054.946,1049.202 918.479,912.736 			"/>
			<polygon fill="#4E4E4E" points="382.834,1747.406 519.304,1747.406 519.304,1236.109 382.834,1375.225 			"/>
			<polygon fill="#4E4E4E" points="1590.589,0.59 1590.589,137.061 1770.441,137.061 1149.622,757.884 874.264,482.527 
				252,1123.284 349.901,1218.36 875.691,676.947 1149.622,950.881 1863.529,236.974 1863.529,406.591 2000,406.591 2000,0.59 			
				"/>
			<polygon fill="#4E4E4E" points="1723.648,569.851 1723.648,1747.409 1860.119,1747.409 1860.119,549.882 1743.617,549.882 			"/>
			<polygon fill="#4E4E4E" points="1184.592,1747.406 1321.063,1747.406 1321.063,972.438 1184.592,1108.907 			"/>
			<polygon fill="#4E4E4E" points="1454.122,1747.409 1590.589,1747.409 1590.589,702.91 1454.122,839.378 			"/>
		</g>
	</g>
</g>
</svg>
