<?xml version="1.0" encoding="utf-8"?>
<!-- Generator: Adobe Illustrator 16.0.0, SVG Export Plug-In . SVG Version: 6.00 Build 0)  -->
<!DOCTYPE svg PUBLIC "-//W3C//DTD SVG 1.1//EN" "http://www.w3.org/Graphics/SVG/1.1/DTD/svg11.dtd">
<svg version="1.1" id="Capa_1" xmlns="http://www.w3.org/2000/svg" xmlns:xlink="http://www.w3.org/1999/xlink" x="0px" y="0px"
	 width="2480px" height="1748px" viewBox="0 0 2480 1748" enable-background="new 0 0 2480 1748" xml:space="preserve">
<g>
	<g>
		<path fill="#AFAFAF" d="M2063.92,853.781c-27.823,0-50.081,22.259-50.081,50.081v455.549
			c0,123.903-100.903,224.435-224.436,224.435H690.597c-123.903,0-224.436-100.902-224.436-224.435V896.444
			c0-27.823-22.258-50.081-50.081-50.081S366,868.62,366,896.444v462.968c0,179.177,145.79,324.597,324.597,324.597h1098.807
			c179.177,0,324.597-145.791,324.597-324.597V903.863C2114,876.411,2091.742,853.781,2063.92,853.781z"/>
		<path fill="#AFAFAF" d="M1204.758,1286.33c9.646,9.646,22.629,14.839,35.242,14.839s25.597-4.822,35.242-14.839l318.29-318.29
			c19.661-19.661,19.661-51.193,0-70.855c-19.661-19.661-51.193-19.661-70.854,0l-232.598,232.968V114.073
			c0-27.822-22.258-50.081-50.08-50.081s-50.08,22.259-50.08,50.081v1016.08L956.951,897.185c-19.661-19.661-51.193-19.661-70.854,0
			s-19.661,51.194,0,70.855L1204.758,1286.33z"/>
	</g>
</g>
</svg>
