<svg height="1066.6666pt" viewBox="-33 -33 1066.6666 1066.6666" width="1066.6666pt" xmlns="http://www.w3.org/2000/svg"><path d="m462.265625 569.699219-20.25 35.421875h40.5zm0 0"/><path d="m426.964844 749.335938c19.25-.628907 38.59375-.996094 58.027344-1.109376 4.382812 0 8.59375-.246093 12.988281-.246093 3.445312 0 6.75.175781 10.195312.195312 20.578125.109375 41.257813.5 62.015625 1.175781 5.664063.203126 11.46875.203126 17.074219.410157v-269.640625c0-9.855469-7.992187-17.855469-17.859375-17.855469h-214.285156c-9.855469 0-17.855469 8-17.855469 17.855469v273.804687c21.992187-1.660156 44.230469-2.90625 66.574219-3.871093 7.640625-.292969 15.429687-.464844 23.125-.71875zm-45.058594-75.140626c-8.554688-4.898437-11.523438-15.800781-6.636719-24.359374l71.429688-125c3.429687-5.203126 9.257812-8.335938 15.488281-8.335938 6.246094 0 12.074219 3.132812 15.503906 8.335938l71.429688 125c4.886718 8.558593 1.910156 19.460937-6.640625 24.359374-8.558594 4.886719-19.460938 1.914063-24.359375-6.644531l-15.78125-27.605469c-1.40625.484376-2.871094.78125-4.359375.894532h-71.421875c-1.515625-.105469-3.003906-.40625-4.4375-.894532l-15.789063 27.675782c-2.351562 4.117187-6.257812 7.121094-10.84375 8.359375-4.589843 1.226562-9.472656.585937-13.582031-1.785157zm0 0"/><path d="m189.902344 806.910156c.148437 1.996094.1875 3.960938.332031 5.960938 1.371094 19.53125 2.535156 39.179687 3.207031 59.039062l.964844-.035156c9.894531-1.289062 19.882812-2.484375 29.964844-3.570312l3.308594-.359376c21.765624-2.359374 43.765624-4.292968 65.617187-5.878906l5.488281-.410156c10.390625-.722656 20.71875-1.378906 30.957032-1.957031l10.347656-.5625c9.75-.511719 19.40625-.980469 28.890625-1.390625l12.03125-.460938c9.722656-.355468 19.304687-.671875 28.578125-.941406l10.71875-.277344c10.847656-.246094 21.421875-.457031 31.421875-.601562h7.234375c14.015625-.34375 27.121094-.34375 39.015625-.34375s25 0 39.066406.25h7.234375c10.058594.148437 20.566406.363281 31.433594.609375l10.710937.269531c9.28125.265625 18.878907.585938 28.570313.949219l12.058594.460937c9.472656.417969 19.140624.867188 28.886718 1.394532l10.34375.550781c10.222656.59375 20.542969 1.253906 30.960938 1.960937l5.484375.417969c21.839843 1.589844 43.851562 3.5625 65.628906 5.867187l3.316406.363282c10.046875 1.101562 20.027344 2.292968 29.945313 3.566406l.875.105469c.683594-19.851563 1.785156-39.492188 3.21875-59.035157.140625-2 .175781-3.960937.316406-5.960937-42.480469-6.933594-86.984375-12.089844-132.785156-15.949219-4.011719-.320312-7.761719-.730468-11.875-1.027344-5.011719-.402343-10.226563-.757812-15.375-1.109374-17.859375-1.25-35.917969-2.257813-54.199219-3.019532-8.453125-.382812-16.84375-.695312-25.175781-.945312-22.621094-.609375-45.425782-1.148438-68.640625-1.148438-29.25 0-58.320313.597656-87.214844 1.789063-4.484375.183593-8.800781.53125-13.261719.730469-24.289062 1.144531-48.4375 2.59375-72.140625 4.554687-46.773437 3.875-92.128906 9.140625-135.460937 16.144531zm0 0"/><path d="m61.117188 215.15625c37.902343 117.714844 103.683593 322.304688 125.792968 556.480469 36.960938-5.953125 75.175782-10.765625 114.648438-14.4375v-277.078125c0-29.589844 23.972656-53.5625 53.5625-53.5625h214.285156c29.589844 0 53.574219 23.972656 53.574219 53.5625v7.730468l57.742187 11.5c13.941406 2.777344 26.207032 10.980469 34.101563 22.796876 7.886719 11.816406 10.757812 26.285156 7.980469 40.226562l-4.804688 24.105469 44.640625 27.535156c25.183594 15.527344 33.007813 48.527344 17.480469 73.714844l-45.355469 73.582031c25.324219 2.929688 50.078125 6.375 74.289063 10.324219 22.101562-234.175781 87.890624-438.765625 125.785156-556.480469 12.496094-38.90625 22.390625-69.644531 26.570312-88.445312 3.796875-17.316407-5.820312-34.785157-22.484375-40.839844l-2.984375-1.125c-139.046875-56.8125-287.753906-86.273438-437.960937-86.765625-150.207031.492187-298.914063 29.953125-437.964844 86.765625l-2.984375 1.125c-16.664062 6.054687-26.273438 23.523437-22.484375 40.839844 4.179687 18.820312 14.082031 49.539062 26.570313 88.445312zm0 0"/><path d="m749.761719 669c2.488281-4.035156 3.277343-8.898438 2.1875-13.511719-1.097657-4.609375-3.980469-8.59375-8.023438-11.078125l-33.445312-20.578125-26.320313 132.148438 11.210938 1.023437zm0 0"/><path d="m736.070312 900.679688h-.96875c-11.875-1.09375-24.230468-2.09375-36.875-3.019532-5.765624-.414062-11.574218-.824218-17.460937-1.195312l-13.996094-.898438c-10.714843-.625-21.570312-1.1875-32.535156-1.675781-3.199219-.160156-6.445313-.285156-9.679687-.410156-11.367188-.488281-22.875-.90625-34.558594-1.25l-3.15625-.109375c-12.863282-.351563-25.96875-.597656-39.183594-.828125l-8.929688-.101563c-13.429687-.242187-26.976562-.351562-40.746093-.351562s-27.320313.109375-40.773438.277344l-8.921875.113281c-13.222656.210937-26.328125.464843-39.179687.820312l-3.164063.109375c-11.699218.34375-23.222656.765625-34.550781 1.253906-3.230469.121094-6.476563.242188-9.675781.40625-11.027344.496094-21.871094 1.058594-32.535156 1.671876l-14 .894531c-5.898438.386719-11.707032.785156-17.46875 1.195312-12.648438.933594-25 1.933594-36.875 3.023438h-.960938c-171.414062 15.902343-261.894531 48.414062-261.894531 79.515625 0 8.667968 12.5 17.859375 35.710937 17.859375 50.753906-2.292969 101.222656-8.859375 150.859375-19.648438 103.167969-21.191406 208.109375-32.550781 313.429688-33.925781 105.316406 1.375 210.257812 12.734375 313.425781 33.925781 49.640625 10.789063 100.113281 17.355469 150.859375 19.648438 23.214844 0 35.714844-9.191407 35.714844-17.859375 0-31.101563-90.484375-63.613282-261.910157-79.441406zm0 0"/><path d="m673.765625 534.386719-50.785156-10.125v227.285156c8.617187.507813 17.078125 1.0625 25.390625 1.628906l32.140625-161.539062v-.082031l7.15625-36.179688c1.90625-9.628906-4.292969-18.996094-13.902344-20.988281zm0 0"/></svg>