<?xml version="1.0" encoding="utf-8"?>
<!-- Generator: Adobe Illustrator 16.0.0, SVG Export Plug-In . SVG Version: 6.00 Build 0)  -->
<!DOCTYPE svg PUBLIC "-//W3C//DTD SVG 1.1//EN" "http://www.w3.org/Graphics/SVG/1.1/DTD/svg11.dtd">
<svg version="1.1" id="Layer_1" xmlns="http://www.w3.org/2000/svg" xmlns:xlink="http://www.w3.org/1999/xlink" x="0px" y="0px"
	 width="2480px" height="1748px" viewBox="0 0 2480 1748" enable-background="new 0 0 2480 1748" xml:space="preserve">
<g>
	<g>
		<path fill="#AFAFAF" d="M1432.762,1135.975h-385.523c-29.057,0-52.692,23.635-52.692,52.692v118.242
			c0,29.058,23.636,52.696,52.692,52.696h385.526c29.058,0,52.696-23.636,52.696-52.696v-118.242
			C1485.454,1159.614,1461.818,1135.975,1432.762,1135.975z M1417.705,1291.858h-355.414v-88.131h355.414V1291.858z"/>
	</g>
</g>
<g>
	<g>
		<path fill="#AFAFAF" d="M2096.848,843.13l0.543-0.273l-254.023-502.223c-20.535-40.593-61.538-65.806-107.018-65.806h-48.277
			v-46.688c0-18.709-15.166-33.874-33.875-33.874H825.806c-18.709,0-33.874,15.165-33.874,33.874v46.688h-48.278
			c-45.479,0-86.481,25.213-107.018,65.806L382.609,842.857l0.543,0.273C372.271,861.05,366,882.068,366,904.518v530.576
			c0,65.42,53.225,118.643,118.646,118.643h1510.712c65.421,0,118.643-53.226,118.643-118.643V904.518
			C2114,882.068,2107.729,861.05,2096.848,843.13z M1688.068,350.105h48.278c16.931,0,32.194,9.393,39.846,24.51l208.019,411.265
			h-141.448V659.333c0-18.709-15.165-33.874-33.874-33.874h-41.908V443.74c0-18.71-15.164-33.875-33.874-33.875h-45.038V350.105z
			 M1775.018,693.204v92.672h-178.757c-30.672,0-58.633,18.07-71.234,46.028l-48.808,108.26c-0.464,1.021-1.484,1.684-2.608,1.684
			h-467.218c-1.123,0-2.144-0.663-2.608-1.687L954.98,831.907c-12.604-27.961-40.566-46.031-71.238-46.031H704.985v-92.672H1775.018
			z M859.681,262.016h760.64v147.846h-760.64V262.016z M1699.232,477.61v147.847H780.768V477.61H1699.232L1699.232,477.61z
			 M703.808,374.615c7.647-15.121,22.915-24.51,39.846-24.51h48.278v59.757h-45.038c-18.709,0-33.875,15.165-33.875,33.874v181.721
			h-41.907c-18.709,0-33.874,15.165-33.874,33.874v126.546H495.789L703.808,374.615z M1995.357,1478.456H484.646
			c-23.912,0-43.369-19.457-43.369-43.362V904.518c0-23.908,19.454-43.361,43.369-43.361h399.097c1.12,0,2.147,0.662,2.612,1.689
			l48.804,108.253c12.604,27.961,40.563,46.025,71.234,46.025h467.215c30.672,0,58.633-18.067,71.234-46.021l48.807-108.257v-0.004
			c0.465-1.023,1.485-1.687,2.609-1.687h399.097c23.912,0,43.362,19.457,43.362,43.362v530.576h0.003
			C2038.723,1459.006,2019.27,1478.456,1995.357,1478.456z"/>
	</g>
</g>
</svg>
