<?xml version="1.0" encoding="utf-8"?>
<!-- Generator: Adobe Illustrator 16.0.0, SVG Export Plug-In . SVG Version: 6.00 Build 0)  -->
<!DOCTYPE svg PUBLIC "-//W3C//DTD SVG 1.1//EN" "http://www.w3.org/Graphics/SVG/1.1/DTD/svg11.dtd">
<svg version="1.1" id="Livello_1" xmlns="http://www.w3.org/2000/svg" xmlns:xlink="http://www.w3.org/1999/xlink" x="0px" y="0px"
	 width="320px" height="115px" viewBox="0 0 320 115" enable-background="new 0 0 320 115" xml:space="preserve">
<g>
	<path fill="#FFFFFF" d="M316.686,4.313h-84.693h-33.81H178.4c-17.745,0-32.137,14.385-32.137,32.133
		c0,17.747,14.392,32.135,32.137,32.135h21.457c5.953,0,10.782,4.824,10.782,10.781s-4.829,10.783-10.782,10.783h-17.628h-35.966
		h-21.321V49.534l-21.353,21.351v19.262V111.5h21.353h21.321h35.966h17.628c17.745,0,32.136-14.391,32.136-32.137
		c0-17.744-14.391-32.133-32.136-32.133H178.4c-5.954,0-10.786-4.829-10.786-10.784c0-5.956,4.832-10.781,10.786-10.781h19.783
		h33.81h19.783V111.5h21.352V25.666h22.207L316.686,4.313z"/>
	<polygon fill="#FFFFFF" points="24.043,111.494 2.69,111.494 2.69,4.313 63.819,65.082 124.942,4.313 124.942,34.438 
		63.892,95.199 24.043,55.502 	"/>
</g>
</svg>
