<?xml version="1.0" encoding="utf-8"?>
<!-- Generator: Adobe Illustrator 16.0.0, SVG Export Plug-In . SVG Version: 6.00 Build 0)  -->
<!DOCTYPE svg PUBLIC "-//W3C//DTD SVG 1.1//EN" "http://www.w3.org/Graphics/SVG/1.1/DTD/svg11.dtd">
<svg version="1.1" id="Livello_1" xmlns="http://www.w3.org/2000/svg" xmlns:xlink="http://www.w3.org/1999/xlink" x="0px" y="0px"
	 width="320px" height="132px" viewBox="0 0 320 132" enable-background="new 0 0 320 132" xml:space="preserve">
<g>
	<path fill="#FFFFFF" d="M306.063,16.14h-78.794h-31.455h-18.404c-16.51,0-29.898,13.382-29.898,29.895
		c0,16.511,13.388,29.896,29.898,29.896h19.963c5.539,0,10.031,4.49,10.031,10.03c0,5.542-4.492,10.034-10.031,10.034h-16.401
		h-33.459h-19.836V58.21L107.81,78.074v17.92v19.866h19.866h19.836h33.459h16.401c16.509,0,29.896-13.389,29.896-29.897
		c0-16.511-13.388-29.895-29.896-29.895h-19.963c-5.54,0-10.034-4.492-10.034-10.032c0-5.541,4.494-10.03,10.034-10.03h18.404
		h31.455h18.404v79.854h19.865V36.005h20.661L306.063,16.14z"/>
	<polygon fill="#247FC0" points="33.803,115.855 13.938,115.855 13.938,16.14 70.81,72.674 127.674,16.14 127.674,44.165 
		70.876,100.695 33.803,63.763 	"/>
</g>
</svg>
