<?xml version="1.0" encoding="utf-8"?>
<!-- Generator: Adobe Illustrator 16.0.0, SVG Export Plug-In . SVG Version: 6.00 Build 0)  -->
<!DOCTYPE svg PUBLIC "-//W3C//DTD SVG 1.1//EN" "http://www.w3.org/Graphics/SVG/1.1/DTD/svg11.dtd">
<svg version="1.1" id="Livello_1" xmlns="http://www.w3.org/2000/svg" xmlns:xlink="http://www.w3.org/1999/xlink" x="0px" y="0px"
	 width="115px" height="320px" viewBox="205 -102.5 115 320" enable-background="new 205 -102.5 115 320" xml:space="preserve">
<g>
	<path fill="#FFFFFF" d="M209-99.091v84.692v33.81v19.783c0,17.745,14.385,32.137,32.133,32.137s32.136-14.392,32.136-32.137V17.737
		c0-5.953,4.823-10.781,10.78-10.781s10.783,4.828,10.783,10.781v17.629v35.965v21.321h-40.61l21.351,21.354h19.262h21.354V92.652
		V71.331V35.366V17.737c0-17.744-14.391-32.136-32.137-32.136c-17.744,0-32.133,14.392-32.133,32.136v21.457
		c0,5.955-4.83,10.786-10.785,10.786s-10.78-4.831-10.78-10.786V19.411v-33.81v-19.782h85.835v-21.353h-85.834v-22.207L209-99.091z"
		/>
	<polygon fill="#1E7EC1" points="316.182,193.551 316.182,214.904 209,214.904 269.77,153.775 209,92.652 239.125,92.652 
		299.887,153.702 260.189,193.551 	"/>
</g>
</svg>
