<?xml version="1.0" encoding="utf-8"?>
<!-- Generator: Adobe Illustrator 16.0.0, SVG Export Plug-In . SVG Version: 6.00 Build 0)  -->
<!DOCTYPE svg PUBLIC "-//W3C//DTD SVG 1.1//EN" "http://www.w3.org/Graphics/SVG/1.1/DTD/svg11.dtd">
<svg version="1.1" id="Capa_1" xmlns="http://www.w3.org/2000/svg" xmlns:xlink="http://www.w3.org/1999/xlink" x="0px" y="0px"
	 width="475.075px" height="475.074px" viewBox="0 0 475.075 475.074" enable-background="new 0 0 475.075 475.074"
	 xml:space="preserve">
<g>
	<path fill="#22252B" d="M475.075,186.573c0-7.043-5.328-11.42-15.992-13.135L315.766,152.6L251.53,22.694
		c-3.615-7.804-8.281-11.704-13.991-11.704c-5.708,0-10.372,3.9-13.989,11.704L159.31,152.6L15.986,173.438
		C5.33,175.153,0,179.53,0,186.573c0,3.999,2.38,8.567,7.139,13.706l103.924,101.068L86.51,444.096
		c-0.381,2.666-0.57,4.575-0.57,5.712c0,3.997,0.998,7.374,2.996,10.136c1.997,2.766,4.993,4.144,8.992,4.144
		c3.428,0,7.233-1.139,11.42-3.425l128.188-67.386l128.194,67.379c4,2.286,7.806,3.432,11.416,3.432
		c7.812,0,11.714-4.75,11.714-14.271c0-2.471-0.096-4.374-0.287-5.716l-24.551-142.744l103.635-101.068
		C472.604,195.33,475.075,190.76,475.075,186.573z M324.62,288.5l20.551,120.199L237.537,351.88l-107.922,56.819L150.457,288.5
		l-87.365-84.799l120.484-17.7l53.959-109.063l53.958,109.063l120.494,17.7L324.62,288.5z"/>
</g>
</svg>
