<?xml version="1.0" encoding="utf-8"?>
<!-- Generator: Adobe Illustrator 16.0.0, SVG Export Plug-In . SVG Version: 6.00 Build 0)  -->
<!DOCTYPE svg PUBLIC "-//W3C//DTD SVG 1.1//EN" "http://www.w3.org/Graphics/SVG/1.1/DTD/svg11.dtd">
<svg version="1.1" id="Livello_1" xmlns="http://www.w3.org/2000/svg" xmlns:xlink="http://www.w3.org/1999/xlink" x="0px" y="0px"
	 width="200px" height="135px" viewBox="0 0 200 135" enable-background="new 0 0 200 135" xml:space="preserve">
<g>
	<path fill="#FFFFFF" d="M124.291,35.473c-5.748-9.845-13.542-17.641-23.388-23.387c-9.849-5.747-20.599-8.62-32.259-8.62
		s-22.413,2.873-32.259,8.62c-9.847,5.746-17.643,13.542-23.39,23.387c-5.747,9.848-8.62,20.602-8.62,32.26
		c0,11.658,2.874,22.412,8.619,32.257c5.747,9.846,13.542,17.645,23.389,23.391c9.848,5.746,20.6,8.619,32.26,8.619
		c11.659,0,22.413-2.873,32.26-8.619c9.846-5.746,17.641-13.543,23.387-23.391c5.746-9.846,8.618-20.6,8.618-32.257
		C132.908,56.075,130.035,45.32,124.291,35.473z M100.775,72.334L55.252,99.111c-0.836,0.502-1.729,0.754-2.677,0.754
		c-0.892,0-1.785-0.225-2.678-0.67c-1.784-1.061-2.677-2.621-2.677-4.686V40.956c0-2.063,0.893-3.626,2.677-4.687
		c1.841-1.004,3.626-0.977,5.355,0.083l45.523,26.779c1.785,1.003,2.677,2.539,2.677,4.603
		C103.453,69.797,102.56,71.329,100.775,72.334z"/>
</g>
<g>
	<path fill="#FFFFFF" d="M148.213,3.466v34.669v13.839v8.099c0,7.264,5.888,13.155,13.153,13.155
		c7.265,0,13.155-5.892,13.155-13.155V51.29c0-2.437,1.974-4.414,4.413-4.414s4.414,1.977,4.414,4.414v7.216v14.722v8.729h-16.624
		l8.74,8.74h7.885h8.741v-8.74v-8.729V58.506V51.29c0-7.264-5.891-13.155-13.155-13.155c-7.264,0-13.154,5.891-13.154,13.155v8.783
		c0,2.438-1.977,4.416-4.415,4.416s-4.413-1.978-4.413-4.416v-8.099V38.135v-8.099h35.137v-8.74h-35.136v-9.09L148.213,3.466z"/>
	<polygon fill="#1E7EC1" points="192.088,123.259 192.088,132 148.213,132 173.089,106.977 148.213,81.957 160.544,81.957 
		185.417,106.947 169.167,123.259 	"/>
</g>
</svg>
