<?xml version="1.0" encoding="utf-8"?>
<!-- Generator: Adobe Illustrator 16.0.0, SVG Export Plug-In . SVG Version: 6.00 Build 0)  -->
<!DOCTYPE svg PUBLIC "-//W3C//DTD SVG 1.1//EN" "http://www.w3.org/Graphics/SVG/1.1/DTD/svg11.dtd">
<svg version="1.1" id="Livello_1" xmlns="http://www.w3.org/2000/svg" xmlns:xlink="http://www.w3.org/1999/xlink" x="0px" y="0px"
	 width="475px" height="135px" viewBox="0 0 475 135" enable-background="new 0 0 475 135" xml:space="preserve">
<path fill="#FFFFFF" d="M468,12.096h-84.763h-33.839h-19.797c-17.762,0-32.163,14.396-32.163,32.159
	c0,17.762,14.401,32.16,32.163,32.16h21.473c5.96,0,10.793,4.83,10.793,10.792s-4.833,10.792-10.793,10.792h-17.643h-35.993H276.1
	V57.353l-21.37,21.369V98v21.37h21.37h21.34h35.992h17.644c17.761,0,32.162-14.402,32.162-32.163s-14.402-32.159-32.163-32.159
	h-21.473c-5.959,0-10.795-4.833-10.795-10.792s4.836-10.79,10.795-10.79h19.797h33.839h19.8v85.904h21.369V33.466h22.225L468,12.096
	z"/>
<polygon fill="#1E7EC1" points="175.12,119.364 153.75,119.364 153.75,12.096 214.929,72.911 276.102,12.096 276.102,42.244 
	215.002,103.056 175.12,63.325 "/>
<g>
	<path fill="#FFFFFF" d="M127.291,35.473c-5.748-9.845-13.542-17.641-23.388-23.387c-9.849-5.747-20.599-8.62-32.259-8.62
		s-22.413,2.873-32.259,8.62c-9.847,5.746-17.643,13.542-23.39,23.387c-5.747,9.848-8.62,20.602-8.62,32.26
		c0,11.658,2.874,22.412,8.619,32.258c5.747,9.845,13.542,17.643,23.389,23.39c9.848,5.746,20.6,8.619,32.26,8.619
		c11.659,0,22.413-2.873,32.26-8.619c9.846-5.746,17.641-13.543,23.387-23.39c5.746-9.846,8.618-20.6,8.618-32.258
		C135.908,56.075,133.035,45.32,127.291,35.473z M103.775,72.334L58.252,99.112c-0.836,0.502-1.729,0.754-2.677,0.754
		c-0.892,0-1.785-0.225-2.678-0.67c-1.784-1.062-2.677-2.621-2.677-4.687V40.956c0-2.063,0.893-3.626,2.677-4.687
		c1.841-1.004,3.626-0.977,5.355,0.083l45.523,26.779c1.785,1.003,2.677,2.539,2.677,4.603
		C106.453,69.797,105.56,71.329,103.775,72.334z"/>
</g>
</svg>
